<svg xmlns="http://www.w3.org/2000/svg" width="792.9" height="282.7" viewBox="0 0 792.9 282.7"><style type="text/css">.st0{fill:#00A19B;}</style><g id="Artwork"><path id="h_3_" class="st0" d="M718.1 160c.5-.8 1-1.6 1.6-2.3 6-7.3 13.2-13.4 20.3-19.7 2.4-2.2 5.3-4 8.1-5.6 3.6-2.2 7.8-1.5 11 1.4 1.5 1.3 2.8 2.8 4.4 4 3.6 2.7 5 6.5 4.6 10.7-.5 4.6-1.3 9.2-2.6 13.6-2.7 9.2-5.9 18.2-8.8 27.3-2.7 8.5-6.6 19.7-9.4 28.3-.4 1.3-1.3 2.5-2.3 3.5-.5.5-1.7.4-2.5.2-1.3-.2-2.6-.7-3.9-.8-2.4-.2-3.1-.7-2.9-3.1.7-10 3.6-22.5 6.5-32.1 3.6-12.2 7.3-24.4 10.8-36.6.5-1.6.7-3.3.8-5 .1-1.5-.6-1.9-1.9-1.2l-3.6 2.2c-.4.3-1 .5-1.1.9-.7 3.3-3.4 5.2-5.5 7.5l-6.3 7.2c-4.1 4.9-8.3 9.8-12.3 14.7l-11.3 13.8c-.3.4-.9.9-1.4.9-2.4 0-2.7 1.6-3.2 3.4-1.3 5-2.6 10-4.3 14.9-1.2 3.7-2.8 7.2-4.5 10.7-1.5 3.1-3.6 3.7-6.8 2.5-.7-.3-1.4-.4-2.2-.4-2.7-.2-3.4-.7-3.2-3.5.3-3 .7-6 1.5-8.9 2.3-8.4 5-16.6 7.4-25 3.7-13 7.3-26 11-38.9.8-2.8 20.1-80.2 21-82.9.8-2.6 3-2.9 5-1.1 1.7 1.7 3.7 3.1 5.6 4.6 1.9 1.4 2.5 3.1 2 5.4-1.2 4.8-20.9 84.1-22 89 .3 0 .4.2.4.4z"/><path id="s_3_" class="st0" d="M686.6 141.6c-.2-.4-4.9-3.5-5.4-3.8-2.2-1.5-4.4-2.8-6.5-4.5-3.5-2.8-7.4-3.4-11.6-2.9-9.2 1-17.6 4.4-25.5 9.1-4.5 2.7-8.8 12.1-5.4 17.2 4 5.9 9.8 13.8 20 21.1 4.1 2.9 8.6 5.3 12.3 8.8 4.2 3.9 2.9 6.8 1.5 9-1.6 2.6-3.8 5.3-6.7 6.6-7.5 3.6-14.2 4.3-22.2 6.5-5.5 1.5-11.1 2.6-16.6 3.9 0 0 2.5.9 5 5.7 2.1 4.2 19.9 3.2 27.9.3 3.6-1.3 7-1.8 10.5-3.5 4.1-2 8-4.2 11.1-7.6.9-1 2.9-2.1 3.7-3.1 2.9-4 2.6-9.6.5-14.3-2.3-5.4-6.2-9.5-10.6-13.2-5.2-4.3-21.2-13.4-22.4-17.9-1.9-7.1 2.4-8.1 5.1-9.5 3.8-2 8-3.1 12-4.5.7-.2 4.4 2.7 5 3 1.2.5 2.3 1.2 3.2 2.1 3.1 2.7 9.6-2.6 13.4-2.9.9-.1 2.5-.6 2.6-1.2.3-1-.4-3.5-.9-4.4z"/><path id="n_3_" class="st0" d="M393.8 159.5c.5-.8 1-1.6 1.6-2.3 6-7.3 13.2-13.4 20.3-19.7 2.4-2.2 5.3-4 8.1-5.6 3.6-2.2 7.8-1.5 11 1.4 1.5 1.3 2.8 2.8 4.4 4 3.6 2.7 5 6.5 4.6 10.7-.5 4.6-1.3 9.2-2.6 13.6-2.7 9.2-5.9 18.2-8.8 27.3-2.7 8.5-6.6 19.7-9.4 28.3-.4 1.3-1.3 2.5-2.3 3.5-.5.5-1.7.4-2.5.2-1.3-.2-2.6-.7-3.9-.8-2.4-.2-3.1-.7-2.9-3.1.7-10 3.6-22.5 6.5-32.1 3.6-12.2 7.3-24.4 10.8-36.6.5-1.6.7-3.3.8-5 .1-1.5-.6-1.9-1.9-1.2l-3.6 2.2c-.4.3-1 .5-1.1.9-.7 3.3-3.4 5.2-5.5 7.5l-6.3 7.2c-4.1 4.9-8.3 9.8-12.3 14.7l-11.3 13.8c-.3.4-.9.9-1.4.9-2.4 0-2.7 1.6-3.2 3.4-1.3 5-2.6 10-4.3 14.9-1.2 3.7-2.8 7.2-4.5 10.7-1.5 3.1-3.6 3.7-6.8 2.5-.7-.3-1.4-.4-2.2-.4-2.7-.2-3.4-.7-3.2-3.5.3-3 .7-6 1.5-8.9 2.3-8.4 5-16.6 7.4-25 3.7-13 7.3-26 11-38.9.8-2.8 1.5-5.6 2.4-8.4.8-2.6 3-2.9 5-1.1 1.7 1.7 3.7 3.1 5.6 4.6 1.9 1.4 2.5 3.1 2 5.4-1.2 4.8-2.3 9.6-3.4 14.4.3.1.3.3.4.5z"/><path id="o_3_" class="st0" d="M362.7 170.5c-1.7 1-1.5 2.7-1.5 4.2.1 8.2-2.1 15.8-6.1 22.8-1.7 3-3.3 6.1-5.4 8.9-2 2.7-4.4 5.1-6.8 7.3-2.1 1.9-4.6 3.6-7 5.2-5.5 3.7-11.2 2.6-16.6 0-3.8-1.8-7.7-3.8-11-6.4-4.5-3.5-6.6-8.6-7-14.3-.6-8.5 2-16.4 5.1-24.1 4-10 10.3-18.6 17.4-26.5 4.6-5.2 9.9-9.7 15-14.4 1.3-1.2 3.2-2.3 5-2.6 3.8-.7 7.5 2.9 7.6 6.9 0 .4-.3.9-.7 1.2-2.4 2.2-5.1 4.1-7.2 6.5-2 2.2-3.2 5-5 7.4-7.7 10.5-13.8 21.9-18.9 33.9-2.8 6.7-2.5 13.8-1.3 20.8.3 1.6.9 2.1 2.5 1.5 5.6-2.1 10.3-5.5 14.3-9.7 7.3-7.9 11.4-17.5 14.6-27.6 1.7-5.4 3.6-10.8 5.6-16.2.4-1.2 1.2-2.4 2.1-4 .6 1 1.3 1.7 1.3 2.4-.3 3.1 1.8 5.9.7 9.1-.4 1.2.7 3 1.4 4.5.4 1.1 1.2 2.1 1.9 3.2z"/><path id="v_3_" class="st0" d="M260.4 202.8c3.5-6.2 7.3-12.3 10.5-18.6 5.7-11 11.1-22.2 16.7-33.2 2.5-4.9 5.1-9.8 7.8-14.7 1-1.8 2.5-3.5 3.8-5.1.9-1.1 2-.8 1.9.5-.2 4 2.7 7.8.7 11.9-.1.2-.2.5-.1.6 3.1 2.5-.3 4.6-.3 6.8-.1 4.5-2 8.4-3.5 12.4l-4.8 11.1c-4.4 11.9-10.3 23-16.4 34-1.7 3.1-3.8 5.9-5.8 8.8-2.4 3.3-5.7 4.7-9.5 3.4-3.5-1.2-7.1-2.4-10.3-4.3-3.9-2.3-5.6-6.4-6.4-10.7-1.7-10.1-1.2-20.2 1-30.3 2.8-12.6 6.8-24.7 12.3-36.4.3-.6.6-1.2.9-1.7 1.8-3.1 3.9-3.3 6.3-.8 1.7 1.8 3.5 3.4 5.2 5.1.4.4.9 1.1.9 1.6-.3 2.3-.5 4.7-1.2 6.9-1.8 5.1-4.2 10.1-5.8 15.3-1.6 5.4-2.8 11-3.6 16.5-1 6.7-1.8 13.5-.9 20.4 0 .3.3.4.6.5z"/><path id="e_3_" class="st0" d="M231.4 131.7c-1.5-.8-3.4-1.1-5.1-.9-5.9.4-10.9 3.1-15.3 6.8-3.6 3.1-7.2 6.3-10.3 10-4.3 5.2-8.5 10.5-11.9 16.3-4.2 7.1-6.7 15.1-8.6 23.1-1.3 5.6-1.5 11.3-.2 16.9 1 4.2 1 4.1-3.1 5.6-1.5.5-3 1.2-4.2 2.1-.7.5-1.4 1.9-1.2 2.6.2.7 1.5 1.4 2.4 1.5 3.5.4 7 .5 10.6.8.7.1 1.6.2 2.1.6 1 .7 6.6 3.3 7.1 3.5 5.4 1.8 21-.3 23.7-4.6.9-1.4 4-8.8 2.7-9.6-1.5-1-11.7 5.4-14.2 5.5-1.4 0-10.8 1.2-9.6.5 2.8-1.5 5.5-3.1 8.2-4.8 6.6-4.4 12.8-9.3 17.7-15.7 4.8-6.2 10.2-12 12.9-19.6 1.6-4.4 2-3.7 4.5-13.4 1.2-4.5.9-9.4.9-14-.1-6.4-3.8-10.5-9.1-13.2zm-2.6 29.2c-3.4 13.2-10.8 18.3-20.4 29.1-4.2 4.7-7.3 9-12.4 12.7-1.9 1.4-2.1 1.2-2.3-1.1v-2.1c.4-5.9 1.8-11.5 3.6-17.1.9-2.8 1.8-5.6 3-8.2 1.2-2.7 2.5-5.3 4.1-7.7 5.1-8.2 6.1-9.9 12.9-16.7 2.8-2.9 5.5-5 9.1-6.4 3.7-1.4 3.8-1.5 3.8 2.5-.2 6.6.1 9.2-1.4 15z"/><path id="D_3_" class="st0" d="M32.2 242.6c15.4-3.1 23.1-6.5 27.7-29.5 3.8-23.5 14.2-79.5 14.2-79.5 5.2-26.5 10.4-53 15.5-79.5.8-4.2 1.6-5.7 2.3-9.8-6.5-1.2-13.9.8-17.9 2.3-.7.3-23.2 12-36.3 26 0 0-8.7 1-10.5-2.1-1.4-2.3.9-5.6 2.4-7.7 16.4-22.5 39.9-31.7 66.6-34.7 37.4-4.2 67.7 3.7 96.1 30.9 4.5 5 8.4 10.9 11.4 21.3 4.9 17 1.7 30.1-4.6 42.6-17.6 37.5-42.2 64.2-54.7 76.1-12.6 11.9-22.1 20.8-42.8 33.7-23.6 13.8-31.6 15.5-47.7 18.6-8.6 1.8-25.9 5.7-29.2 3.9 3.3-6.6 4.1-11.9 7.5-12.6zm149.5-129.7c4.3-11 4.7-22.9-.2-33.1-17.3-29.8-37.3-38-67-36.6-1.5.1-3.9 1.5-4.1 2.6-2.7 14.1-7.5 38.8-7.5 38.8-1.3 6.7-4 19.2-3.8 19.6-.2 1.6-.2 3.2-.5 4.7-7.1 35-22.1 113.5-22 115.1 1.3-.7 16.6-8.1 28.8-17.1 0 0 19.9-15.3 30.1-25.4 6.8-6.7 15.7-19 20.7-26.1 4.9-6.9 14.7-22.1 14.7-22.1 5.2-8.1 8.6-15.1 10.8-20.4z"/><path id="A_3_" class="st0" d="M627.8 38.3c-.5-2.4-.9-3.9-2.4-5.5-2.4-2.5-5.3-4.2-8.5-5-8.9-2.2-18.5-.4-22.2 1.3-5.7 2.5-10.4 7-15.1 11-4.6 4-14.3 17.4-14.7 18-2.8 3.7-13.5 19.4-16.6 24.8-10.2 17.2-21.4 41.4-22.6 44-1.9 3.7-10.4 23.9-10.9 27.6-.1.9-2.1 2.2-3.4 2.4-7.2 1.6-9.3 2.5-16.4 4.3-6.5 1.6-12.8 3.7-19.2 5.6-7 2.1-13.7 5.1-19.9 9.1-2.7 1.8-4.9 7-5.1 10.7-.1 1.4.3 1.9 1.6 2.2 2.5.5 5 1.1 7.5 1.5 10.5 1.5 21.1 2.3 31.7 1.5 3.5-.3 5.8-1.2 9.7-1.1-1.8 4.7-3.5 7.6-5.1 11.8-1.6 4.1-3 8.3-4.7 12.5-2.3 6-2.7 6.9-1.8 9.6 1.3.2 5.1 1.1 4.7 2.8-.8 4 2.6 5.5 6.7 5.2.9-.1 2.2-1 2.5-1.8l4-13.2 4.1-11.9 4.9-13.7c.9-2.5 1.6-3 4.5-2.8 4.7.2 9.3.5 14 .5 11.6 0 23.1 1.5 34.4 3.7 3.3.6-1.4 28.8.4 36.7 2.8 12.3 8 18.4 16 21.6 2.9 1.2 9 2.8 12.7 3.7 9 2.3 21-2.9 24.8-11.7 2.1-6.8.8-11.1.8-11.1-1.3-5.1-3.7-9.7-6.8-13.9-3-4.3-6.6-8.1-11.2-13.4-8.9-10.5-10.1-8.8-22.9-19.1-1.3-1.1 1.7-8.7 2-9.6.7-2.5 5.8-17.2 6.1-18.4.3-1.3.8-1.8 2.1-1.9l11.6-1.8c5.8-.8 11.4-1.9 15.9-5.7-1.9-.4-4-.6-6-1.2-.9-.3-2-1.1-2.5-2-1.1-1.9-1-2-2.7-1.9-3.5.1-12.3.4-13.2.4.1-1.2 8.7-27.2 10.5-32.7.5-1.4 6.3-16.2 8.6-22.5 1-2.7 5.2-13.8 6.2-16.8 2.1-6.2 3.7-12.5 5.3-18.8.7-2.7 1.2-5.6 1.3-8.4.1-2.3-.2-4.1-.7-6.6zm-127 143.1c-8.6-.1-14.5.7-23 .4-.6 0-8-.2-9.1-.4 2.6-1.1 12.2-2.6 14.3-3.3 5.7-2 10.7-3.6 16.5-5.5 2.3-.7 3.4-.9 5.8-1.3.7-.1 0 1.9-.3 2.7-1 2.6-.9 3.8-2.2 6.3-.3.6-1.3 1.2-2 1.1zm85.7 17.1c9.5 4.9 16.8 12.2 21.2 22 1.6 3.6 3.3 7.4 2 11.6-2.3 7.7-8 12.5-16.6 13.4-3.5 1-6.3-.6-8.4-4.1-3-5-4.9-10.4-5.6-16.3-1-7.9.1-15.6 1.2-23.3.8-5.8 1.1-6 6.2-3.3zm-7.6-32.6c-1.5 4.9-3 12.6-4.3 15.9-.9 2.4-.7 2.4-3.2 2.2-10.8-.5-14.5-.9-24.2-1.2-5.5-.1-12.6-1.1-17.6-1h-9.8c1.4-4 2.6-6.2 3.8-9.6 1.1-3.3 2.7-5.5 6.7-6.4 11.6-2.7 23.3-4.2 35.1-5.5 5.1-.6 10.2-1.6 15.9-2.5-.9 3.2-1.6 5.6-2.4 8.1zm36-120.9c-.7.1-2.2 2.5-2.8 2.2.2 19.6-3.9 29.1-7.3 42-.5 1.9-5.1 15.7-6.8 20.5-1.5 4.2-10.2 30.7-10.6 32.3-.5 2.1-4 3.4-6.3 3.7-4.6.5-5.2 1.2-9.8 1.9-9.1 1.4-18.2 2.9-27.4 4.2-3.4.5-7 .6-10.4 1-1.6.2-1.6-.8-1.2-1.7l6.1-13.5c.8-1.7 1.4-3.5 2.1-5.3 1.3-3.1 7.2-14.5 8.4-17.3.3-.7 6-12.4 7.5-14.8 3.1-5.1 6.2-10.3 9.6-15.3 5.3-8 10.5-16.2 16.4-23.8 7.3-9.6 15.9-15.4 26.5-21.6.7-.4 1.5-.9 2.2-1.2 2-1 3.9 5.1 3.8 6.7z"/></g></svg>