<?xml version="1.0" encoding="utf-8"?>
<!-- Generator: Adobe Illustrator 19.1.0, SVG Export Plug-In . SVG Version: 6.00 Build 0)  -->
<!DOCTYPE svg PUBLIC "-//W3C//DTD SVG 1.1//EN" "http://www.w3.org/Graphics/SVG/1.1/DTD/svg11.dtd">
<svg version="1.1" id="Layer_1" xmlns="http://www.w3.org/2000/svg" xmlns:xlink="http://www.w3.org/1999/xlink" x="0px" y="0px"
	 width="32px" height="32px" viewBox="-379 291 32 32" style="enable-background:new -379 291 32 32;" xml:space="preserve">
<style type="text/css">
	.st0{fill:#00A19B;}
</style>
<path class="st0" d="M-363,291.5c-8.6,0-15.5,6.9-15.5,15.5s6.9,15.5,15.5,15.5s15.5-6.9,15.5-15.5S-354.4,291.5-363,291.5z
	 M-357.6,309.2l-0.6,0.8c0,0-0.2,0.2-0.4,0.5c-0.6,0.7-2,2.1-2.6,2.6c-1.3,1-2.4,1.4-3.2,1c-0.6-0.2-1.4-1.1-1.7-2.1
	c-0.2-0.4-0.4-1-0.5-1.7c-1.3-4.5-1.4-4.9-1.7-5.6c-0.2-0.3-0.4-0.7-0.5-0.8c-0.3-0.3-0.5-0.3-1.2,0.1c-0.3,0.2-0.6,0.3-0.6,0.3
	c-0.1,0-0.7-0.7-0.7-0.8s3.1-2.8,3.7-3.1c0.7-0.5,0.9-0.5,1.4-0.6c0.3,0,0.4,0,0.7,0.1c0.2,0.1,0.5,0.3,0.6,0.5
	c0.5,0.5,0.6,0.8,0.9,2.5c0,0.1,0.1,0.8,0.3,1.5c0.5,2.9,0.9,4,1.3,4.4c0.4,0.4,0.9,0,1.8-1.4c1.3-1.9,1.6-3.4,1-4.1
	c-0.2-0.2-0.2-0.2-0.7-0.2c-0.3,0-0.7,0-0.9,0.1l-0.4,0.1v-0.2c0.1-0.3,0.5-1.2,0.8-1.6c0.5-0.8,1.4-1.6,2.1-1.8
	c0.4-0.1,1.2-0.2,1.7-0.2h0.2c1.1,0.1,1.9,0.8,2.2,2c0,0.1,0,0.5,0.1,0.8C-354.5,304.2-355.5,306.4-357.6,309.2z"/>
</svg>
