<?xml version="1.0" encoding="utf-8"?>
<!-- Generator: Adobe Illustrator 19.1.0, SVG Export Plug-In . SVG Version: 6.00 Build 0)  -->
<!DOCTYPE svg PUBLIC "-//W3C//DTD SVG 1.1//EN" "http://www.w3.org/Graphics/SVG/1.1/DTD/svg11.dtd">
<svg version="1.1" id="Layer_1" xmlns="http://www.w3.org/2000/svg" xmlns:xlink="http://www.w3.org/1999/xlink" x="0px" y="0px"
	 width="32px" height="32px" viewBox="-379 291 32 32" style="enable-background:new -379 291 32 32;" xml:space="preserve">
<style type="text/css">
	.st0{fill:#00A19B;}
</style>
<path class="st0" d="M-365.7,308.1c-0.4-0.2-0.8-0.1-1.3-0.1h-3v3h2.9l0.7-0.2c0.2,0,0.4-0.3,0.6-0.4c0.2-0.1,0.3-0.3,0.4-0.5
	c0.1-0.2,0.2-0.3,0.2-0.6C-365.2,308.7-365.4,308.4-365.7,308.1z M-366.1,305.6c0.3-0.2,0.4-0.7,0.4-1.1c0-0.3,0-0.5-0.1-0.7
	c-0.1-0.2-0.2-0.3-0.4-0.4c-0.2-0.1-0.3-0.2-0.6-0.2l-0.6-0.1h-2.6v3h2.8C-366.8,306-366.4,305.8-366.1,305.6z M-357.8,305.8
	c-0.4,0-0.7,0.1-0.9,0.2c-0.2,0.1-0.4,0.3-0.6,0.5l-0.3,0.7c-0.1,0.2-0.1-0.2-0.1,0.8h3.7c-0.1-1-0.3-1.2-0.5-1.5
	C-356.8,306.2-357.2,305.8-357.8,305.8z M-363,291.5c-8.6,0-15.5,6.9-15.5,15.5s6.9,15.5,15.5,15.5s15.5-6.9,15.5-15.5
	S-354.4,291.5-363,291.5z M-360,302h4v1h-4V302z M-363.1,310.8c-0.2,0.4-0.5,0.8-0.9,1.1c-0.4,0.3-0.8,0.6-1.3,0.7s-1,0.4-1.5,0.4
	h-5.2v-12h5.1c0.5,0,1,0.1,1.5,0.2c0.4,0.1,0.8,0.3,1.2,0.6c0.3,0.2,0.6,0.5,0.7,0.9c0.2,0.4,0.3,0.8,0.3,1.3c0,0.6-0.1,1.1-0.4,1.4
	c-0.3,0.4-0.7,0.7-1.2,0.9c0.7,0.2,1.2,0.6,1.6,1.1c0.3,0.5,0.5,1.1,0.5,1.9C-362.7,309.9-362.8,310.4-363.1,310.8z M-353.7,309h-6
	c0,1,0.2,1.3,0.6,1.6c0.3,0.3,0.8,0.5,1.5,0.5c0.5,0,0.9-0.1,1.2-0.4c0.3-0.2,0.5-0.8,0.6-0.8h2c-0.3,1-0.8,1.7-1.5,2.2
	c-0.7,0.4-1.5,0.7-2.4,0.7c-0.7,0-1.2-0.1-1.8-0.3c-0.5-0.2-1-0.5-1.3-0.9c-0.4-0.4-0.6-0.8-0.8-1.4c-0.2-0.5-0.3-1.1-0.3-1.8
	c0-0.6,0.1-1.2,0.3-1.7c0.2-0.5,0.5-1,0.9-1.4c0.4-0.4,0.8-0.7,1.3-0.9c0.5-0.2,1.1-0.3,1.7-0.3c0.7,0,1.3,0.1,1.8,0.4
	c0.5,0.3,1,0.6,1.3,1.1c0.3,0.5,0.6,1,0.7,1.6C-353.7,307.8-353.7,308-353.7,309z"/>
</svg>
