<?xml version="1.0" encoding="utf-8"?>
<!-- Generator: Adobe Illustrator 19.1.0, SVG Export Plug-In . SVG Version: 6.00 Build 0)  -->
<!DOCTYPE svg PUBLIC "-//W3C//DTD SVG 1.1//EN" "http://www.w3.org/Graphics/SVG/1.1/DTD/svg11.dtd">
<svg version="1.1" id="Layer_1" xmlns="http://www.w3.org/2000/svg" xmlns:xlink="http://www.w3.org/1999/xlink" x="0px" y="0px"
	 width="32px" height="32px" viewBox="-379 291 32 32" style="enable-background:new -379 291 32 32;" xml:space="preserve">
<style type="text/css">
	.st0{fill:#00A19B;}
</style>
<path class="st0" d="M-363,291.5c-8.6,0-15.5,6.9-15.5,15.5s6.9,15.5,15.5,15.5s15.5-6.9,15.5-15.5S-354.4,291.5-363,291.5z
	 M-367,313h-3v-10h3V313z M-368.1,302.1c-0.9,0-1.7-0.8-1.7-1.7s0.8-1.7,1.7-1.7s1.7,0.8,1.7,1.7
	C-366.4,301.4-367.2,302.1-368.1,302.1z M-356,313h-3v-4.7c0-1.1,0.1-2.5-1.4-2.5s-1.6,1.2-1.6,2.4v4.8h-3v-10h3v2h0.1
	c0.4-1,1.2-1.7,2.6-1.7c3,0,3.3,1.8,3.3,4.4V313z"/>
</svg>
